<?xml version="1.0" encoding="UTF-8" standalone="no" ?>
<!DOCTYPE svg PUBLIC "-//W3C//DTD SVG 1.1//EN" "http://www.w3.org/Graphics/SVG/1.1/DTD/svg11.dtd">
<svg xmlns="http://www.w3.org/2000/svg" xmlns:xlink="http://www.w3.org/1999/xlink" version="1.1" width="90" height="55" viewBox="0 0 90 55" xml:space="preserve">
<desc>Created with Fabric.js 3.6.6</desc>
<defs>
</defs>
<g transform="matrix(1 0 0 1 45.14 27.7)"  >
<g style=""   >
		<g transform="matrix(1 0 0 1 -22.91 0)" clip-path="url(#CLIPPATH_9)"  >
<clipPath id="CLIPPATH_9" >
	<rect transform="matrix(1 0 0 1 -66.91 0)" id="clip0_12_28" x="-130" y="-22.24335" rx="0" ry="0" width="260" height="44.4867" />
</clipPath>
<path style="stroke: none; stroke-width: 1; stroke-dasharray: none; stroke-linecap: butt; stroke-dashoffset: 0; stroke-linejoin: miter; stroke-miterlimit: 4; fill: rgb(97,92,242); fill-rule: nonzero; opacity: 1;"  transform=" translate(-196.91, -22.24)" d="M 207.635 35.4532 H 202.195 L 191.623 18.0669 V 35.4532 H 186.182 V 9.03349 H 191.623 L 202.226 26.4508 V 9.03349 H 207.635 V 35.4532 Z" stroke-linecap="round" />
</g>
		<g transform="matrix(1 0 0 1 1.51 0)" clip-path="url(#CLIPPATH_10)"  >
<clipPath id="CLIPPATH_10" >
	<rect transform="matrix(1 0 0 1 -91.33 0)" id="clip0_12_28" x="-130" y="-22.24335" rx="0" ry="0" width="260" height="44.4867" />
</clipPath>
<path style="stroke: none; stroke-width: 1; stroke-dasharray: none; stroke-linecap: butt; stroke-dashoffset: 0; stroke-linejoin: miter; stroke-miterlimit: 4; fill: rgb(97,92,242); fill-rule: nonzero; opacity: 1;"  transform=" translate(-221.33, -22.24)" d="M 228.253 24.0067 H 217.805 V 31.0603 H 230.17 V 35.4532 H 212.488 V 9.03349 H 230.139 V 13.4574 H 217.929 V 19.6447 H 228.377 L 228.253 24.0067 Z" stroke-linecap="round" />
</g>
		<g transform="matrix(1 0 0 1 22.89 0)" clip-path="url(#CLIPPATH_11)"  >
<clipPath id="CLIPPATH_11" >
	<rect transform="matrix(1 0 0 1 -112.7 0)" id="clip0_12_28" x="-130" y="-22.24335" rx="0" ry="0" width="260" height="44.4867" />
</clipPath>
<path style="stroke: none; stroke-width: 1; stroke-dasharray: none; stroke-linecap: butt; stroke-dashoffset: 0; stroke-linejoin: miter; stroke-miterlimit: 4; fill: rgb(97,92,242); fill-rule: nonzero; opacity: 1;"  transform=" translate(-242.7, -22.24)" d="M 253.447 13.4574 H 245.379 V 35.4532 H 239.938 V 13.4574 H 231.963 V 9.03349 H 253.447 V 13.4574 Z" stroke-linecap="round" />
</g>
		<g transform="matrix(1 0 0 1 0 0)" clip-path="url(#CLIPPATH_12)"  >
<clipPath id="CLIPPATH_12" >
	<rect transform="matrix(1 0 0 1 -89.81 0)" id="clip0_12_28" x="-130" y="-22.24335" rx="0" ry="0" width="260" height="44.4867" />
</clipPath>
<path style="stroke: rgb(56,47,115); stroke-width: 4; stroke-dasharray: none; stroke-linecap: butt; stroke-dashoffset: 0; stroke-linejoin: miter; stroke-miterlimit: 10; fill: none; fill-rule: nonzero; opacity: 1;"  transform=" translate(-219.81, -22.24)" d="M 258.454 1.54683 H 181.175 V 42.9399 H 258.454 V 1.54683 Z" stroke-linecap="round" />
</g>
</g>
</g>
</svg>