<svg width="260" height="45" viewBox="0 0 260 45" fill="none" xmlns="http://www.w3.org/2000/svg">
<g clip-path="url(#clip0_12_28)">
<path d="M26.2751 38.8872H21.9474V32.3905H4.57497V38.8872H0.154541V28.74H2.28747C3.46798 27.4902 4.32726 25.972 4.79133 24.3161C5.44548 22.1734 5.85001 19.9623 5.99689 17.7266L6.7079 6.00168H23.3385V28.74H26.677L26.2751 38.8872ZM7.29523 28.74H18.6089V9.7141H10.9119L10.4792 17.1388C10.3964 21.2104 9.30223 25.1974 7.29523 28.74Z" fill="white"/>
<path d="M38.1762 32.7617C36.9239 32.8059 35.6757 32.5957 34.5068 32.1438C33.338 31.6918 32.2728 31.0075 31.3756 30.1321C30.4943 29.1956 29.8102 28.0914 29.3641 26.8849C28.9181 25.6785 28.719 24.3945 28.779 23.1095V22.5527C28.7441 20.7342 29.1359 18.9329 29.9227 17.2934C30.5942 15.8293 31.6659 14.5852 33.0139 13.7048C34.3704 12.8393 35.9493 12.3879 37.5579 12.4055C38.7153 12.3378 39.8731 12.5336 40.944 12.9784C42.0148 13.4232 42.9709 14.1052 43.7403 14.9732C45.3178 17.0437 46.097 19.6137 45.9351 22.2123V23.9757H33.1375C33.1778 25.4192 33.7504 26.7966 34.7449 27.8428C35.2184 28.3042 35.78 28.6652 36.3962 28.9044C37.0123 29.1436 37.6702 29.2561 38.3307 29.235C39.286 29.2536 40.2318 29.0411 41.0875 28.6156C41.9432 28.1901 42.6836 27.5642 43.2458 26.791L45.626 29.0494C44.8624 30.2293 43.7944 31.1806 42.5348 31.8027C41.1708 32.4413 39.6821 32.7689 38.1762 32.7617ZM37.6507 15.9632C37.0974 15.9397 36.5459 16.0416 36.0374 16.2612C35.5289 16.4809 35.0766 16.8126 34.7141 17.2316C33.904 18.2418 33.4094 19.4684 33.2921 20.7583H41.6692V20.4181C41.6729 19.2023 41.2581 18.0224 40.4946 17.0769C40.1279 16.6982 39.6842 16.4029 39.1936 16.2107C38.7029 16.0186 38.1768 15.9342 37.6507 15.9632Z" fill="white"/>
<path d="M48.7171 22.9239C48.5693 20.2554 49.2262 17.6039 50.6027 15.3136C51.1697 14.4289 51.9525 13.7034 52.8774 13.2054C53.8022 12.7074 54.8386 12.4534 55.8887 12.4674C56.7508 12.4661 57.6037 12.6452 58.3925 12.9934V4.6095H62.7202V13.0552C63.5705 12.6549 64.5008 12.4539 65.4404 12.4674C66.4876 12.4501 67.522 12.6994 68.4466 13.1918C69.3712 13.6842 70.1557 14.4037 70.7263 15.2826C72.1424 17.7052 72.8093 20.4935 72.6429 23.2952C72.7733 25.7618 72.1008 28.2043 70.7263 30.2559C70.1302 31.0847 69.3383 31.7529 68.4213 32.2009C67.5044 32.649 66.491 32.8629 65.4714 32.8237C64.521 32.8139 63.5834 32.603 62.7202 32.2049V39.939H58.3925V32.2049C57.5862 32.5244 56.7249 32.682 55.8577 32.6689C54.8876 32.7028 53.9231 32.5077 53.0424 32.0993C52.1616 31.6908 51.3895 31.0805 50.7882 30.3178C49.421 28.4416 48.6947 26.1741 48.7171 23.852V22.9239ZM53.0757 23.2952C52.9817 24.8534 53.3243 26.4071 54.0649 27.781C54.3586 28.2808 54.7867 28.6879 55.3005 28.9559C55.8142 29.224 56.393 29.3421 56.9706 29.2969C57.4511 29.3044 57.9301 29.2419 58.3925 29.1112V16.2107C57.9398 16.0842 57.4715 16.0217 57.0014 16.0251C56.4013 16.0001 55.8069 16.1507 55.2909 16.4583C54.7748 16.766 54.3595 17.2174 54.0957 17.7575C53.3128 19.4716 52.9625 21.352 53.0757 23.2333V23.2952ZM68.2534 22.9239C68.3475 21.1637 67.9966 19.4081 67.2333 17.8194C66.9438 17.2555 66.4987 16.7866 65.9507 16.4685C65.4027 16.1504 64.7749 15.9965 64.1421 16.0251C63.6391 16.0168 63.1381 16.0899 62.6584 16.2417V29.1112C63.1619 29.2474 63.6825 29.3099 64.204 29.2969C66.9551 29.1112 68.2534 27.1004 68.2534 22.9239Z" fill="white"/>
<path d="M85.0696 32.7617C83.8225 32.8018 82.5801 32.5895 81.4168 32.1377C80.2536 31.6858 79.1935 31.0037 78.2999 30.1321C77.4186 29.1957 76.7345 28.0914 76.2885 26.885C75.8424 25.6785 75.6434 24.3946 75.7033 23.1096V22.5527C75.6732 20.7381 76.0536 18.9401 76.8161 17.2935C77.5065 15.8417 78.5742 14.6022 79.9073 13.7048C81.2748 12.8385 82.8639 12.3873 84.4823 12.4056C85.6394 12.3401 86.7964 12.537 87.8669 12.9817C88.9374 13.4263 89.8938 14.107 90.6646 14.9732C92.2421 17.0437 93.0213 19.6137 92.8594 22.2124V23.9758H80.0309C80.0938 25.4202 80.6756 26.7934 81.6693 27.8428C82.137 28.3033 82.6932 28.6642 83.3042 28.9035C83.9152 29.1427 84.5683 29.2555 85.2241 29.235C86.1846 29.2587 87.1365 29.0487 87.998 28.623C88.8595 28.1973 89.6049 27.5686 90.17 26.791L92.5502 29.0494C91.7712 30.2159 90.7071 31.1637 89.459 31.8027C88.0853 32.4449 86.5858 32.7725 85.0696 32.7617ZM84.544 15.9632C83.9953 15.94 83.4484 16.0421 82.945 16.2619C82.4415 16.4816 81.9946 16.8133 81.6383 17.2316C80.815 18.234 80.3187 19.4649 80.2164 20.7584H88.5935V20.4181C88.585 19.2045 88.1715 18.0285 87.4188 17.0769C87.0474 16.6959 86.5986 16.3993 86.1026 16.2071C85.6066 16.0149 85.075 15.9318 84.544 15.9632Z" fill="white"/>
<path d="M103.308 24.6254H101.082V32.3905H96.7233V12.7768H101.113V20.6037H102.906L108.315 12.7768H113.756L106.677 22.0577L114.343 32.2667H108.624L103.308 24.6254Z" fill="white"/>
<path d="M132.303 16.2726H125.966V32.3905H121.453V16.2726H115.271V12.7768H132.303V16.2726Z" fill="white"/>
<path d="M133.818 22.398C133.801 20.6013 134.192 18.8242 134.961 17.2007C135.631 15.7518 136.704 14.5272 138.053 13.6739C139.482 12.8231 141.119 12.3842 142.782 12.4055C143.978 12.3615 145.17 12.567 146.282 13.0091C147.395 13.4512 148.403 14.12 149.243 14.9732C150.946 16.8184 151.895 19.2364 151.901 21.7483V22.9239C151.931 24.7087 151.55 26.4765 150.788 28.0904C150.114 29.5364 149.042 30.7598 147.697 31.6171C146.244 32.4671 144.588 32.9055 142.906 32.8855C141.665 32.9364 140.427 32.7166 139.28 32.2411C138.132 31.7657 137.102 31.046 136.26 30.1321C134.517 28.0755 133.621 25.4318 133.756 22.7383L133.818 22.398ZM138.238 22.8002C138.139 24.4692 138.572 26.1267 139.474 27.5334C139.884 28.0662 140.411 28.4977 141.014 28.7946C141.617 29.0915 142.28 29.2459 142.952 29.2459C143.624 29.2459 144.287 29.0915 144.89 28.7946C145.493 28.4977 146.02 28.0662 146.43 27.5334C147.358 26.0002 147.79 24.2173 147.666 22.4289C147.752 20.7667 147.308 19.1202 146.399 17.7266C146.007 17.1691 145.482 16.7185 144.872 16.4159C144.262 16.1133 143.586 15.9683 142.906 15.9942C142.242 15.9721 141.584 16.1161 140.99 16.4133C140.396 16.7104 139.886 17.1512 139.505 17.6957C138.546 19.2609 138.123 21.0964 138.3 22.9239L138.238 22.8002Z" fill="white"/>
<path d="M156.167 32.3905V12.7768H164.111C166.268 12.6204 168.422 13.1161 170.294 14.1999C170.97 14.6226 171.521 15.2181 171.89 15.925C172.26 16.632 172.434 17.4248 172.396 18.2217C172.403 19.1076 172.109 19.9695 171.561 20.6656C170.906 21.4475 170.035 22.018 169.057 22.3052C170.239 22.4985 171.325 23.0744 172.148 23.9448C172.873 24.7136 173.272 25.7339 173.261 26.791C173.304 27.6 173.142 28.4066 172.79 29.1365C172.439 29.8664 171.91 30.496 171.252 30.9675C169.506 32.0271 167.478 32.5238 165.441 32.3905H156.167ZM160.556 20.8822H164.204C166.677 20.8822 167.944 20.1397 167.944 18.6857C167.944 17.2317 166.77 16.3345 164.39 16.2726H160.556V20.8822ZM160.556 23.9758V28.8638H165.379C167.635 28.8638 168.779 28.0285 168.779 26.4198C168.779 24.8111 167.635 23.9758 165.348 23.9758H160.556Z" fill="white"/>
<path d="M207.635 35.4532H202.195L191.623 18.0669V35.4532H186.182V9.03349H191.623L202.226 26.4508V9.03349H207.635V35.4532Z" fill="#615CF2"/>
<path d="M228.253 24.0067H217.805V31.0603H230.17V35.4532H212.488V9.03349H230.139V13.4574H217.929V19.6447H228.377L228.253 24.0067Z" fill="#615CF2"/>
<path d="M253.447 13.4574H245.379V35.4532H239.938V13.4574H231.963V9.03349H253.447V13.4574Z" fill="#615CF2"/>
<path d="M258.454 1.54683H181.175V42.9399H258.454V1.54683Z" stroke="#382F73" stroke-width="4" stroke-miterlimit="10"/>
</g>
<defs>
<clipPath id="clip0_12_28">
<rect width="260" height="44.4867" fill="white"/>
</clipPath>
</defs>
</svg>
